<?xml version="1.0" encoding="UTF-8" standalone="no"?>
<!-- Created with Inkscape (http://www.inkscape.org/) -->

<svg
   width="300"
   height="500"
   viewBox="0 0 79.374998 132.29167"
   version="1.1"
   id="svg1"
   inkscape:version="1.3.2 (091e20e, 2023-11-25, custom)"
   sodipodi:docname="Bamboo.svg"
   xmlns:inkscape="http://www.inkscape.org/namespaces/inkscape"
   xmlns:sodipodi="http://sodipodi.sourceforge.net/DTD/sodipodi-0.dtd"
   xmlns="http://www.w3.org/2000/svg"
   xmlns:svg="http://www.w3.org/2000/svg">
  <sodipodi:namedview
     id="namedview1"
     pagecolor="#ffffff"
     bordercolor="#999999"
     borderopacity="1"
     inkscape:showpageshadow="2"
     inkscape:pageopacity="0"
     inkscape:pagecheckerboard="0"
     inkscape:deskcolor="#d1d1d1"
     inkscape:document-units="mm"
     inkscape:zoom="1.4916699"
     inkscape:cx="15.083766"
     inkscape:cy="447.14986"
     inkscape:window-width="1440"
     inkscape:window-height="830"
     inkscape:window-x="-6"
     inkscape:window-y="-6"
     inkscape:window-maximized="1"
     inkscape:current-layer="layer1" />
  <defs
     id="defs1" />
  <g
     inkscape:label="Livello 1"
     inkscape:groupmode="layer"
     id="layer1">
    <g
       id="g17">
      <g
         id="g6">
        <path
           style="fill:#777777;fill-opacity:1;stroke:#6d651d;stroke-width:0;stroke-linecap:round;stroke-linejoin:round;stroke-miterlimit:0;stroke-dasharray:none;stroke-dashoffset:111.874"
           d="M -3.7248522,123.68685 C 5.5610366,88.915316 19.173784,34.98521 24.132814,19.372249 c 8.184186,8.848047 8.484285,9.365725 8.803988,13.65895 L 4.8537518,137.83856 c -3.5709517,-3.03016 -7.0371397,-6.30876 -8.578604,-14.15171 z"
           id="path1"
           sodipodi:nodetypes="ccccc" />
        <path
           id="rect2"
           style="fill:#777777;fill-opacity:1;stroke:#6d651d;stroke-width:0;stroke-linecap:round;stroke-linejoin:round;stroke-miterlimit:0;stroke-dasharray:none;stroke-dashoffset:111.874"
           d="m 16.94525,43.569016 c -0.800286,0.003 -1.502101,0.467373 -1.695905,1.190659 -0.238529,0.890201 0.385273,1.825676 1.399219,2.097362 l 11.719569,3.140167 c 1.013946,0.271686 2.022353,-0.226044 2.260881,-1.116243 0.238528,-0.890199 -0.386252,-1.825676 -1.400198,-2.097362 l -11.71859,-3.140167 c -0.190115,-0.05094 -0.380294,-0.0751 -0.564977,-0.07441 z m -6.721945,24.533838 c -0.8002865,0.003 -1.5021014,0.467373 -1.6959053,1.190659 -0.2385285,0.890201 0.3852756,1.825676 1.3992197,2.097362 L 21.64619,74.531042 c 1.013944,0.271686 2.022353,-0.226044 2.260881,-1.116243 0.238528,-0.890198 -0.385276,-1.825674 -1.399222,-2.09736 L 10.788281,68.17727 c -0.190115,-0.05094 -0.380294,-0.0751 -0.564977,-0.07441 z M 2.8296647,94.653769 c -0.8002867,0.003 -1.5020982,0.46736 -1.6959025,1.190648 -0.23852953,0.890204 0.3852717,1.825683 1.3992177,2.097369 l 11.7195681,3.140174 c 1.013946,0.27168 2.022355,-0.22605 2.260884,-1.116259 0.238525,-0.890186 -0.386253,-1.825672 -1.400199,-2.097358 L 3.3946419,94.72818 C 3.204527,94.677239 3.0143281,94.653149 2.8296844,94.653696 Z" />
        <path
           style="fill:#777777;fill-opacity:0;stroke:#777777;stroke-width:2;stroke-linecap:round;stroke-linejoin:round;stroke-miterlimit:0;stroke-dasharray:none;stroke-dashoffset:111.874;stroke-opacity:1"
           d="M 1.951113,30.508313 C 4.4210295,35.188241 7.7876016,43.988138 9.0460694,48.9552 10.878933,56.552716 12.176068,63.523343 10.287687,80.527757"
           id="path4"
           sodipodi:nodetypes="ccc" />
        <path
           style="fill:#777777;fill-opacity:0;stroke:#777777;stroke-width:2;stroke-linecap:round;stroke-linejoin:round;stroke-miterlimit:0;stroke-dasharray:none;stroke-dashoffset:111.874;stroke-opacity:1"
           d="m 3.2651489,60.262195 c 2.4230944,4.704342 5.7016883,13.537394 6.9105291,18.516767 1.756959,7.615427 2.984473,14.59865 0.926506,31.583378"
           id="path5"
           sodipodi:nodetypes="ccc" />
        <path
           style="fill:#777777;fill-opacity:0;stroke:#777777;stroke-width:2;stroke-linecap:round;stroke-linejoin:round;stroke-miterlimit:0;stroke-dasharray:none;stroke-dashoffset:111.874;stroke-opacity:1"
           d="M 41.099653,87.966259 C 36.335717,90.269978 28.406702,95.35945 24.447975,98.612745 18.466915,103.64351 13.288973,108.48717 4.7261616,123.29914"
           id="path6"
           sodipodi:nodetypes="ccc" />
      </g>
      <g
         id="g11"
         transform="rotate(-11.382553,261.67203,43.507271)">
        <path
           style="fill:#777777;fill-opacity:1;stroke:#6d651d;stroke-width:0;stroke-linecap:round;stroke-linejoin:round;stroke-miterlimit:0;stroke-dasharray:none;stroke-dashoffset:111.874"
           d="M -3.7248522,123.68685 C 5.5610366,88.915316 19.173784,34.98521 24.132814,19.372249 c 8.184186,8.848047 8.484285,9.365725 8.803988,13.65895 L 4.8537518,137.83856 Z"
           id="path7"
           sodipodi:nodetypes="ccccc" />
        <path
           id="path8"
           style="fill:#777777;fill-opacity:1;stroke:#6d651d;stroke-width:0;stroke-linecap:round;stroke-linejoin:round;stroke-miterlimit:0;stroke-dasharray:none;stroke-dashoffset:111.874"
           d="m 16.94525,43.569016 c -0.800286,0.003 -1.502101,0.467373 -1.695905,1.190659 -0.238529,0.890201 0.385273,1.825676 1.399219,2.097362 l 11.719569,3.140167 c 1.013946,0.271686 2.022353,-0.226044 2.260881,-1.116243 0.238528,-0.890199 -0.386252,-1.825676 -1.400198,-2.097362 l -11.71859,-3.140167 c -0.190115,-0.05094 -0.380294,-0.0751 -0.564977,-0.07441 z m -6.721945,24.533838 c -0.8002865,0.003 -1.5021014,0.467373 -1.6959053,1.190659 -0.2385285,0.890201 0.3852756,1.825676 1.3992197,2.097362 L 21.64619,74.531042 c 1.013944,0.271686 2.022353,-0.226044 2.260881,-1.116243 0.238528,-0.890198 -0.385276,-1.825674 -1.399222,-2.09736 L 10.788281,68.17727 c -0.190115,-0.05094 -0.380294,-0.0751 -0.564977,-0.07441 z M 2.8296647,94.653769 c -0.8002867,0.003 -1.5020982,0.46736 -1.6959025,1.190648 -0.23852953,0.890204 0.3852717,1.825683 1.3992177,2.097369 l 11.7195681,3.140174 c 1.013946,0.27168 2.022355,-0.22605 2.260884,-1.116259 0.238525,-0.890186 -0.386253,-1.825672 -1.400199,-2.097358 L 3.3946419,94.72818 C 3.204527,94.677239 3.0143281,94.653149 2.8296844,94.653696 Z" />
        <path
           style="fill:#777777;fill-opacity:0;stroke:#777777;stroke-width:2;stroke-linecap:round;stroke-linejoin:round;stroke-miterlimit:0;stroke-dasharray:none;stroke-dashoffset:111.874;stroke-opacity:1"
           d="M 1.951113,30.508313 C 4.4210295,35.188241 7.7876016,43.988138 9.0460694,48.9552 10.878933,56.552716 12.176068,63.523343 10.287687,80.527757"
           id="path9"
           sodipodi:nodetypes="ccc" />
        <path
           style="fill:#777777;fill-opacity:0;stroke:#777777;stroke-width:2;stroke-linecap:round;stroke-linejoin:round;stroke-miterlimit:0;stroke-dasharray:none;stroke-dashoffset:111.874;stroke-opacity:1"
           d="m 3.2651489,60.262195 c 2.4230944,4.704342 5.7016883,13.537394 6.9105291,18.516767 1.756959,7.615427 2.984473,14.59865 0.926506,31.583378"
           id="path10"
           sodipodi:nodetypes="ccc" />
      </g>
      <path
         id="path13"
         style="fill:#777777;fill-opacity:1;stroke:#6d651d;stroke-width:0;stroke-linecap:round;stroke-linejoin:round;stroke-miterlimit:0;stroke-dasharray:none;stroke-dashoffset:111.874"
         d="m 39.705977,64.110191 c -0.724313,0.340349 -1.164701,1.057458 -1.035269,1.794987 0.1593,0.907732 1.119533,1.492707 2.153446,1.311262 l 11.950329,-2.097281 c 1.033914,-0.181445 1.7382,-1.058144 1.5789,-1.965873 -0.159301,-0.90773 -1.120421,-1.492294 -2.154335,-1.310849 l -11.949441,2.096868 c -0.193858,0.03402 -0.376476,0.09235 -0.543628,0.170892 z m 4.256015,25.079476 c -0.724313,0.340349 -1.164701,1.057457 -1.03527,1.794987 0.159301,0.907732 1.119536,1.492706 2.153447,1.311262 L 57.0305,90.198633 c 1.033912,-0.181444 1.7382,-1.058143 1.578899,-1.965873 -0.1593,-0.907728 -1.119534,-1.492703 -2.153448,-1.311259 l -11.950329,2.09728 c -0.193858,0.03402 -0.376477,0.09235 -0.543628,0.170891 z M 48.45999,116.3813 c -0.724314,0.34035 -1.164704,1.05744 -1.035272,1.79497 0.159301,0.90774 1.119534,1.49272 2.153448,1.31127 l 11.950331,-2.09727 c 1.033911,-0.18145 1.738199,-1.05815 1.578896,-1.96589 -0.159298,-0.90772 -1.12042,-1.49229 -2.154334,-1.31085 l -11.94944,2.09688 c -0.193859,0.034 -0.376466,0.0924 -0.543642,0.17081 z" />
      <path
         style="fill:#777777;fill-opacity:1;stroke:#6d651d;stroke-width:0;stroke-linecap:round;stroke-linejoin:round;stroke-miterlimit:0;stroke-dasharray:none;stroke-dashoffset:111.874"
         d="M 53.919972,140.71071 C 47.669423,105.26755 37.259101,50.628841 35.168326,34.38122 c 11.153047,4.569289 11.643531,4.912034 13.744637,8.669606 L 67.668154,149.92217 Z"
         id="path12"
         sodipodi:nodetypes="ccccc" />
      <path
         style="fill:#777777;fill-opacity:0;stroke:#777777;stroke-width:2;stroke-linecap:round;stroke-linejoin:round;stroke-miterlimit:0;stroke-dasharray:none;stroke-dashoffset:111.874;stroke-opacity:1"
         d="m 19.755442,53.835854 c 4.21374,3.201033 10.978586,9.759147 14.215105,13.731601 4.867043,6.115024 8.983894,11.887697 14.445704,28.101416"
         id="path14"
         sodipodi:nodetypes="ccc" />
      <path
         style="fill:#777777;fill-opacity:0;stroke:#777777;stroke-width:2;stroke-linecap:round;stroke-linejoin:round;stroke-miterlimit:0;stroke-dasharray:none;stroke-dashoffset:111.874;stroke-opacity:1"
         d="m 79.490092,89.413874 c -3.347314,4.098499 -8.388977,12.057996 -10.605638,16.677726 -3.300318,7.08446 -5.951429,13.66045 -7.465946,30.70224"
         id="path16"
         sodipodi:nodetypes="ccc" />
      <path
         style="fill:#777777;fill-opacity:0;stroke:#777777;stroke-width:2;stroke-linecap:round;stroke-linejoin:round;stroke-miterlimit:0;stroke-dasharray:none;stroke-dashoffset:111.874;stroke-opacity:1"
         d="m 71.68564,61.743543 c -3.347314,4.098499 -8.388977,12.057996 -10.605638,16.677726 -3.300318,7.08446 -5.951429,13.66045 -7.465946,30.702241"
         id="path17"
         sodipodi:nodetypes="ccc" />
    </g>
  </g>
</svg>
